<?xml version="1.0" encoding="UTF-8"?>
<svg id="Layer_1" data-name="Layer 1" xmlns="http://www.w3.org/2000/svg" viewBox="0 0 1151.2 110.92">
  <defs>
    <style>
      .cls-1 {
        fill: #fff;
      }
    </style>
  </defs>
  <polygon class="cls-1" points="62.75 5.45 46.63 51.45 46.32 51.45 30.05 5.45 0 5.45 33.64 74.3 33.64 108.73 59 108.73 59 74.3 92.48 5.45 62.75 5.45"/>
  <path class="cls-1" d="M142.72,28.53c-5.32-3.08-12.1-4.62-20.34-4.62-4.49,0-9,.52-13.54,1.57-4.54,1.04-8.71,2.79-12.52,5.24-3.81,2.45-6.81,5.84-9,10.17-2.19,4.33-3.18,9.78-2.97,16.35l22.53,1.56c-.11-3.96.57-7.01,2.03-9.15,1.46-2.14,3.34-3.62,5.63-4.46,2.29-.83,4.59-1.25,6.89-1.25,3.65,0,6.6.78,8.84,2.35,2.24,1.57,3.36,3.86,3.36,6.89,0,1.46-.5,2.61-1.49,3.44-.99.84-2.84,1.56-5.56,2.19-2.71.63-6.78,1.46-12.21,2.5-3.86.73-7.77,1.59-11.74,2.58-3.97.99-7.62,2.45-10.95,4.38-3.34,1.93-6,4.49-7.98,7.67-1.98,3.18-2.97,7.33-2.97,12.44,0,5.53,1.2,9.94,3.6,13.22,2.4,3.29,5.48,5.66,9.23,7.12,3.76,1.46,7.72,2.19,11.89,2.19,5.63,0,10.61-1.17,14.94-3.52,4.33-2.35,7.82-5.48,10.48-9.39,2.66-3.91,4.2-8.22,4.62-12.91h.94v23.63h21.91v-45.85c0-8.24-1.28-15.26-3.83-21.05-2.56-5.79-6.49-10.22-11.82-13.3ZM131.92,81.58c-1.15,2.76-2.64,4.93-4.46,6.49-1.83,1.57-3.76,2.69-5.79,3.36-2.03.68-3.94,1.02-5.71,1.02-2.71,0-5.03-.7-6.96-2.11-1.93-1.41-2.9-3.47-2.9-6.18,0-2.29.65-4.09,1.96-5.4,1.3-1.3,3-2.35,5.09-3.13,2.09-.78,4.35-1.41,6.81-1.88,2.45-.47,4.88-.94,7.28-1.41,2.37-.46,4.5-1.1,6.42-1.92v.91c0,4.07-.57,7.49-1.72,10.25Z"/>
  <path class="cls-1" d="M369.37,78.21c.1,2.19-.05,4.15-.47,5.87-.42,1.72-1.15,3.18-2.19,4.38-1.04,1.2-2.4,2.11-4.07,2.74-1.67.63-3.76.94-6.26.94-5.84,0-10.17-1.93-12.99-5.79-2.28-3.12-3.62-7.78-4.06-13.91l51.16-.8c1.15-6.68,1.28-12.88.39-18.62-.89-5.74-2.84-10.8-5.87-15.18-3.03-4.38-7.07-7.8-12.13-10.25-5.06-2.45-11.14-3.68-18.23-3.68s-13.17,1.23-18.23,3.68c-5.06,2.45-9.18,5.79-12.36,10.01-3.18,4.23-5.53,9.05-7.04,14.48-1.51,5.43-2.27,11.11-2.27,17.06,0,5.53.7,10.8,2.11,15.81,1.41,5.01,3.73,9.47,6.96,13.38,3.23,3.91,7.48,6.99,12.75,9.23,5.27,2.24,11.81,3.36,19.64,3.36,7.41,0,13.54-.99,18.39-2.97,4.85-1.98,8.63-4.54,11.35-7.67,2.71-3.13,4.56-6.52,5.56-10.17.99-3.65,1.33-7.2,1.02-10.64l-23.16-1.25ZM345.42,46.76c2.29-1.98,5.37-2.97,9.23-2.97,3.65,0,6.52.86,8.61,2.58,2.09,1.72,3.52,4.23,4.3,7.51.3,1.28.47,2.7.56,4.2l-28.27.55c.2-1.22.43-2.4.71-3.5.94-3.6,2.55-6.39,4.85-8.37Z"/>
  <path class="cls-1" d="M451.68,23.91c-5.95,0-10.85,1.31-14.71,3.91-3.86,2.61-6.83,6.55-8.92,11.82-2.09,5.27-3.44,11.97-4.07,20.11h-1.25V26.1h-21.44v82.63h25.35v-29.26c0-8.24.68-14.81,2.03-19.72,1.35-4.9,3.23-8.45,5.63-10.64,2.4-2.19,5.16-3.29,8.29-3.29,3.76,0,6.49,1.41,8.22,4.22,1.72,2.82,2.58,7.04,2.58,12.68v46.01h25.35v-49.29c0-11.79-2.27-20.66-6.81-26.6-4.54-5.95-11.29-8.92-20.27-8.92Z"/>
  <path class="cls-1" d="M569.64,61.5c.42,4.8.05,9.13-1.1,12.99-1.15,3.86-3.11,6.89-5.87,9.08-2.77,2.19-6.55,3.29-11.35,3.29-5.22,0-9.55-1.38-12.99-4.15-3.44-2.76-6-6.67-7.67-11.74-1.67-5.06-2.5-11.03-2.5-17.92,0-5.32.47-9.99,1.41-14.01.94-4.01,2.32-7.38,4.15-10.09,1.82-2.71,4.07-4.75,6.73-6.1,2.66-1.35,5.71-2.03,9.15-2.03,4.07,0,7.43.89,10.09,2.66,2.66,1.77,4.64,4.28,5.95,7.51,1.3,3.23,1.85,7.1,1.64,11.58l23.32-2.82c.63-5.22.31-10.22-.94-15.02-1.25-4.8-3.52-9.05-6.81-12.75-3.29-3.7-7.64-6.62-13.07-8.76-5.43-2.14-11.89-3.21-19.4-3.21-8.66,0-16.07,1.41-22.22,4.23-6.16,2.82-11.19,6.7-15.1,11.66-3.91,4.96-6.81,10.72-8.69,17.29-1.88,6.57-2.82,13.56-2.82,20.97s.91,14.01,2.74,20.42c1.82,6.42,4.72,12.13,8.69,17.14,3.96,5.01,9.08,8.92,15.34,11.74,6.26,2.82,13.77,4.22,22.53,4.22,8.24,0,15.2-1.2,20.89-3.6,5.68-2.4,10.22-5.68,13.61-9.86,3.39-4.17,5.74-8.89,7.04-14.16,1.3-5.27,1.69-10.77,1.17-16.51l-23.94-2.03Z"/>
  <path class="cls-1" d="M786.43,74.96c.1,2.19-.05,4.15-.47,5.87-.42,1.72-1.15,3.18-2.19,4.38-1.04,1.2-2.4,2.11-4.07,2.74-1.67.63-3.76.94-6.26.94-5.84,0-10.17-1.93-12.99-5.79-2.28-3.12-3.62-7.78-4.06-13.91l51.16-.8c1.15-6.68,1.28-12.88.39-18.62-.89-5.74-2.84-10.8-5.87-15.18-3.03-4.38-7.07-7.8-12.13-10.25-5.06-2.45-11.14-3.68-18.23-3.68s-13.17,1.23-18.23,3.68c-5.06,2.45-9.18,5.79-12.36,10.01-3.18,4.23-5.53,9.05-7.04,14.48-1.51,5.43-2.27,11.11-2.27,17.06,0,5.53.7,10.8,2.11,15.81,1.41,5.01,3.73,9.47,6.96,13.38,3.23,3.91,7.48,6.99,12.75,9.23,5.27,2.24,11.81,3.36,19.64,3.36,7.41,0,13.54-.99,18.39-2.97,4.85-1.98,8.63-4.54,11.35-7.67,2.71-3.13,4.56-6.52,5.56-10.17.99-3.65,1.33-7.2,1.02-10.64l-23.16-1.25ZM762.49,43.5c2.29-1.98,5.37-2.97,9.23-2.97,3.65,0,6.52.86,8.61,2.58,2.09,1.72,3.52,4.23,4.3,7.51.3,1.28.47,2.7.56,4.2l-28.27.55c.2-1.22.43-2.4.71-3.5.94-3.6,2.56-6.39,4.85-8.37Z"/>
  <path class="cls-1" d="M877.04,25.27c-5.32-3.08-12.1-4.62-20.34-4.62-4.49,0-9,.52-13.54,1.57-4.54,1.04-8.71,2.79-12.52,5.24-3.81,2.45-6.81,5.84-9,10.17-2.19,4.33-3.18,9.78-2.97,16.35l22.53,1.56c-.1-3.96.57-7.01,2.03-9.15,1.46-2.14,3.34-3.62,5.63-4.46,2.29-.83,4.59-1.25,6.89-1.25,3.65,0,6.6.78,8.84,2.35,2.24,1.57,3.36,3.86,3.36,6.89,0,1.46-.5,2.61-1.49,3.44-.99.84-2.84,1.56-5.56,2.19-2.71.63-6.78,1.46-12.21,2.5-3.86.73-7.77,1.59-11.74,2.58-3.97.99-7.62,2.45-10.95,4.38-3.34,1.93-6,4.49-7.98,7.67-1.98,3.18-2.97,7.33-2.97,12.44,0,5.53,1.2,9.94,3.6,13.22,2.4,3.29,5.48,5.66,9.23,7.12s7.72,2.19,11.89,2.19c5.63,0,10.61-1.17,14.94-3.52,4.33-2.35,7.82-5.48,10.49-9.39,2.66-3.91,4.2-8.22,4.62-12.91h.94v23.63h21.91v-45.85c0-8.24-1.28-15.26-3.83-21.05-2.56-5.79-6.49-10.22-11.81-13.3ZM866.24,78.32c-1.15,2.76-2.64,4.93-4.46,6.49-1.83,1.57-3.76,2.69-5.79,3.36-2.03.68-3.94,1.02-5.71,1.02-2.71,0-5.03-.7-6.96-2.11-1.93-1.41-2.89-3.47-2.89-6.18,0-2.29.65-4.09,1.96-5.4,1.3-1.3,3-2.35,5.09-3.13,2.09-.78,4.35-1.41,6.81-1.88,2.45-.47,4.88-.94,7.28-1.41,2.37-.46,4.5-1.1,6.42-1.92v.91c0,4.07-.57,7.49-1.72,10.25Z"/>
  <path class="cls-1" d="M932.28,3.91h-14.87v.31c-.63,7.1-2.3,12.39-5.01,15.88-2.71,3.5-7.3,5.66-13.77,6.49h-.47v15.96h9.08v34.27c0,10.43,2.37,18.13,7.12,23.08,4.75,4.96,11.97,7.43,21.67,7.43,1.88,0,4.07-.13,6.57-.39,2.5-.26,5.37-.86,8.61-1.8v-22.06c-1.36.73-2.82,1.31-4.38,1.72-1.57.42-3.08.63-4.54.63-2.82,0-5.19-.83-7.12-2.5-1.93-1.67-2.9-4.48-2.9-8.45v-31.3h18.94v-20.34h-18.94V3.91Z"/>
  <path class="cls-1" d="M1010.37,74.96c.1,2.19-.05,4.15-.47,5.87-.42,1.72-1.15,3.18-2.19,4.38-1.04,1.2-2.4,2.11-4.07,2.74-1.67.63-3.76.94-6.26.94-5.84,0-10.17-1.93-12.99-5.79-2.28-3.12-3.62-7.78-4.06-13.91l51.16-.8c1.15-6.68,1.28-12.88.39-18.62-.89-5.74-2.84-10.8-5.87-15.18-3.03-4.38-7.07-7.8-12.13-10.25-5.06-2.45-11.14-3.68-18.23-3.68s-13.17,1.23-18.23,3.68c-5.06,2.45-9.18,5.79-12.36,10.01-3.18,4.23-5.53,9.05-7.04,14.48-1.51,5.43-2.27,11.11-2.27,17.06,0,5.53.7,10.8,2.11,15.81,1.41,5.01,3.73,9.47,6.96,13.38,3.23,3.91,7.48,6.99,12.75,9.23,5.27,2.24,11.81,3.36,19.64,3.36,7.41,0,13.54-.99,18.39-2.97,4.85-1.98,8.63-4.54,11.35-7.67,2.71-3.13,4.56-6.52,5.56-10.17.99-3.65,1.33-7.2,1.02-10.64l-23.16-1.25ZM986.43,43.5c2.29-1.98,5.37-2.97,9.23-2.97,3.65,0,6.52.86,8.61,2.58,2.09,1.72,3.52,4.23,4.3,7.51.3,1.28.47,2.7.56,4.2l-28.27.55c.2-1.22.43-2.4.71-3.5.94-3.6,2.56-6.39,4.85-8.37Z"/>
  <path class="cls-1" d="M1103.48,62.67c-3.34-1.93-6.94-3.47-10.8-4.62-3.86-1.15-7.57-2.09-11.11-2.82-4.07-.94-7.38-1.8-9.94-2.58-2.56-.78-4.44-1.72-5.63-2.82-1.2-1.1-1.8-2.43-1.8-3.99,0-1.98.96-3.62,2.89-4.93,1.93-1.3,4.67-1.96,8.22-1.96,3.13,0,5.79.55,7.98,1.64,2.19,1.09,3.86,2.71,5.01,4.85,1.15,2.14,1.57,4.72,1.25,7.75l21.6-2.03c.83-7.41-.34-13.35-3.52-17.84-3.18-4.48-7.54-7.72-13.07-9.7-5.53-1.98-11.48-2.97-17.84-2.97-7.1,0-13.36,1.07-18.78,3.21-5.43,2.14-9.68,5.22-12.75,9.23-3.08,4.02-4.62,8.9-4.62,14.63,0,4.07.78,7.49,2.35,10.25,1.57,2.77,3.86,5.09,6.89,6.96,3.02,1.88,6.68,3.5,10.95,4.85,4.28,1.36,9.08,2.71,14.4,4.07,4.28,1.04,7.54,1.96,9.78,2.74,2.24.78,3.78,1.62,4.62,2.5.83.89,1.25,2.01,1.25,3.36,0,2.61-1.17,4.46-3.52,5.56-2.35,1.1-5.14,1.64-8.37,1.64-3.44,0-6.36-.52-8.76-1.56-2.4-1.04-4.28-2.68-5.63-4.93-1.36-2.24-2.14-5.09-2.35-8.53l-22.06,1.88c-.31,5.74.44,10.62,2.27,14.63,1.82,4.02,4.48,7.23,7.98,9.62,3.49,2.4,7.61,4.15,12.36,5.24,4.75,1.1,9.88,1.64,15.41,1.64,7.93,0,14.61-1.04,20.03-3.13,5.42-2.09,9.55-5.06,12.36-8.92,2.82-3.86,4.23-8.35,4.23-13.46,0-4.8-1.04-8.76-3.13-11.89-2.09-3.13-4.8-5.66-8.14-7.59Z"/>
  <path class="cls-1" d="M307.75,41.94v-13.65h-21.44v.04s-.06-.04-.06-.04c-.56.81-1.36,1.95-2.34,3.32-2.89,4.01-5.38,7.14-6.79,8.88-.48.59-.83,1.01-.95,1.16-10.66,12.95-19.53,31.07-35.4,34.3-.84.17-1.82.37-3.2.43-14.61.66-25.97-15.7-35.2-29.05-3.01-4.36-7.08-10.76-11.16-19.04h0s-21.44,0-21.44,0v82.63h21.44v-34.11c10.19,11.93,25.55,24.58,46.36,24.58.58,0,1.16-.01,1.74-.04,18.05-.78,30.88-12.8,47-31.78v41.34h21.44V42.44c.08-.12.16-.23.24-.34-.02-.01-.1-.07-.24-.16Z"/>
  <path class="cls-1" d="M663.12,20.75c-18.54,3.78-32.67,12.53-39.8,24.42v-22.64h-21.44v82.63h21.44v-18.43c2.63,6,6.45,12.59,11.87,19.75l17.73-13.43c-7.96-10.51-15.19-25.04-11.6-34.28,2.83-7.28,12.89-13.5,26.24-16.22,17.32-3.53,38.32-1.1,59.12,6.84l7.93-20.78c-24.7-9.43-50.09-12.22-71.5-7.86Z"/>
  <path class="cls-1" d="M1139.74,25.14c-.33-.5-.74-.91-1.21-1.23.53-.25.99-.57,1.36-.96.43-.44.75-.95.96-1.51.2-.55.3-1.16.3-1.83,0-.7-.11-1.34-.33-1.93-.22-.6-.57-1.13-1.02-1.6-.44-.45-.97-.82-1.59-1.12-.6-.29-1.28-.51-2.02-.65-.73-.14-1.55-.21-2.43-.21h-6.69v17.64h4.3v-5.88h2.12c.56,0,1.04.07,1.43.22.35.13.62.32.85.61.24.3.43.71.56,1.23l.93,3.83h4.63l-1.29-4.54c-.24-.85-.52-1.53-.88-2.07ZM1136.11,21.55c-.54.38-1.39.57-2.53.57h-2.2v-4.22h2.24c1.15,0,2.03.19,2.52.55.27.2.64.58.64,1.55s-.39,1.34-.68,1.55Z"/>
  <path class="cls-1" d="M1133.38,5.1c-9.83,0-17.82,8-17.82,17.82s8,17.82,17.82,17.82,17.82-8,17.82-17.82-8-17.82-17.82-17.82ZM1133.38,36.55c-7.51,0-13.62-6.11-13.62-13.62s6.11-13.62,13.62-13.62,13.62,6.11,13.62,13.62-6.11,13.62-13.62,13.62Z"/>
</svg>